<?xml version="1.0" encoding="UTF-8"?> <svg xmlns="http://www.w3.org/2000/svg" viewBox="0 0 413 109.8" fill="#190d30"><path d="M119.3 16.7h14c12.8 0 21.2 6.8 21.2 23.2s-8.3 23.3-21.3 23.3h-13.9zm14 41c9.5 0 15-4.4 15-17.8s-5.6-17.7-15-17.7h-7.8v35.4zM171 43.5l12.2-.5v-1.8c0-4.8-2.4-7.6-8.3-7.6s-8.3 2.8-8.5 6.3h-6c.2-6.3 4.8-11.3 14.4-11.3s14 5 14 13V63h-5.6v-3.6a.4.4 0 00-.4-.4c-.3 0-.5.1-.7.4-2.4 3.2-5.8 4.6-10.3 4.6-8.3 0-13.2-4.4-13.2-10.8.1-5.8 4-9.4 12.4-9.8zm1.6 15.6c6.5 0 10.6-3.7 10.6-10.8V48l-12.2.6c-4.5.1-6.5 2-6.5 4.8 0 3.6 3 5.8 8.1 5.8zM192 29.6h6l9.6 28.4c.2.4.2.5.7.5s.4-.2.6-.5l9.7-28.3h5.8v1.2L211.8 67c-2.1 6.3-5.4 8.4-12.4 8.4h-6.2v-5.1h10.4c.6 0 1-.2 1.2-.7l1.9-5c.1-.5.2-.8 0-1s-.3-.4-.8-.4h-2.6l-11.2-32.3zM263 30h-6.3c-.3-6-4.6-8.7-11-8.7s-10.4 2.6-10.4 7.5 4.1 6.6 8.8 7.5l5.9 1c6.8 1.2 13.4 4.3 13.4 13s-7.4 13.8-17 13.8-18.3-5-18.6-16.1h6.3c.4 7.5 5.6 10.6 12.4 10.6s10.8-3 10.8-8.2-4.5-6.8-9.3-7.7l-5.9-1c-6.2-1-12.8-4.2-12.8-12.8s7.5-13.2 16.6-13.2S262.6 20.3 263 30zM269.5 29.6h5.8v3.8c0 .3.2.4.4.4s.4-.1.7-.6c1.8-2.8 5-4.6 9.5-4.6 5.2 0 8.8 2.3 10.6 5.9.2.3.2.5.7.5s.4-.2.6-.7c1.8-3.7 5.2-5.8 11-5.8 7.7 0 12.2 5.2 12.2 13.3V63h-5.8V42.5c0-5.7-2.9-8.7-8.4-8.7-4.5 0-8.7 3-8.7 10.3v19h-5.8V42.5c0-5.7-2.9-8.7-8.4-8.7-4.5 0-8.7 3-8.7 10.3v19h-5.8V29.6zM338.6 43.5l12.2-.5v-1.8c0-4.8-2.4-7.6-8.4-7.6s-8.3 2.8-8.4 6.3h-6c.2-6.3 4.7-11.3 14.4-11.3s14 5 14 13V63h-5.6v-3.6a.4.4 0 00-.5-.4c-.2 0-.4.1-.6.4-2.5 3.2-5.8 4.6-10.3 4.6-8.3 0-13.2-4.4-13.2-10.8 0-5.8 3.9-9.4 12.4-9.8zm1.5 15.6c6.5 0 10.7-3.7 10.7-10.8V48l-12.2.6c-4.6.1-6.5 2-6.5 4.8 0 3.6 2.9 5.8 8 5.8zM362.4 29.6h5.8v4.5c0 .4.2.5.5.5.4 0 .5-.2.6-.5 1.5-3.3 3.8-4.6 8.4-4.6h3.8v5.7h-4.6c-5.7 0-8.6 2.5-8.6 9v19h-5.8V29.6zM384.1 29.6h7.8v-9h5.7v9h9.7V35h-9.7V57c0 .3.1.6.3.7a.9.9 0 00.7.2h8.7v5.2h-5.7c-6.6 0-9.7-3-9.7-9.6V34.8h-7.7v-5.2zM404.2 18.5a4.4 4.4 0 01.3-1.8 6 6 0 011-1.4 3.3 3.3 0 011.3-1 4.2 4.2 0 011.8-.3 4.4 4.4 0 011.8.3 6 6 0 011.4 1 3.3 3.3 0 011 1.4 4.2 4.2 0 01.2 1.7 4.4 4.4 0 01-.3 1.8 6 6 0 01-1 1.4 3.2 3.2 0 01-1.3 1 4.2 4.2 0 01-1.8.3 4.4 4.4 0 01-1.8-.3 6 6 0 01-1.4-1 3.3 3.3 0 01-1-1.4 4.4 4.4 0 01-.2-1.7zm.8 0a3.8 3.8 0 00.3 1.4 3.5 3.5 0 00.7 1.2 3 3 0 001.2.7 4 4 0 001.4.3 3.9 3.9 0 001.4-.3 3.7 3.7 0 001.2-.7 3 3 0 00.8-1.2 3.8 3.8 0 00.2-1.4 4 4 0 00-.2-1.5 3.8 3.8 0 00-.8-1.2 2.8 2.8 0 00-1.1-.7 3.9 3.9 0 00-1.5-.3 4 4 0 00-1.4.3 3.6 3.6 0 00-1.2.7 2.9 2.9 0 00-.7 1.2 4 4 0 00-.3 1.5zm3.6 1.8a.9.9 0 001-1v-.2h1v.2a1.8 1.8 0 01-.6 1.3 1.8 1.8 0 01-1.4.5 2 2 0 01-1.4-.5 2 2 0 01-.5-1.3v-1.7a1.8 1.8 0 01.5-1.3 2 2 0 011.4-.5 2 2 0 011.4.5 1.9 1.9 0 01.5 1.3v.3h-1v-.3a1 1 0 00-.2-.7.8.8 0 00-.7-.3 1 1 0 00-.7.3 1 1 0 00-.2.7v1.8a.9.9 0 00.9 1zM355 102a12.1 12.1 0 01-5-1 8.1 8.1 0 01-3.5-3 8.4 8.4 0 01-1.3-4.5h4.3A5.1 5.1 0 00351 97a6.4 6.4 0 007.7.3 3.6 3.6 0 001.3-2.8 3.8 3.8 0 00-.6-2.3 4.9 4.9 0 00-1.7-1.5 15.3 15.3 0 00-2.5-1l-3-1a10.9 10.9 0 01-4.6-2.6 6 6 0 01-1.6-4.3 6.8 6.8 0 011-4 7.3 7.3 0 013-2.5 10.6 10.6 0 014.6-1 10.2 10.2 0 014.5 1 7.3 7.3 0 013.2 2.6 7.2 7.2 0 011.1 4h-4.2a4 4 0 00-.5-2 4.2 4.2 0 00-1.6-1.5 4.8 4.8 0 00-2.5-.7 4.7 4.7 0 00-3.2 1 3.3 3.3 0 00-1.2 2.8 3 3 0 001 2.4 7.2 7.2 0 002.4 1.4l3.7 1.2a17.9 17.9 0 013.5 1.6 7.1 7.1 0 012.5 2.4 7 7 0 011 3.8 7.2 7.2 0 01-1 3.7 7.6 7.6 0 01-3.1 2.8 10.8 10.8 0 01-5.1 1zM367.6 109.8V82.6h3.6l.5 3a8.6 8.6 0 012.5-2.4 7.4 7.4 0 014-1 9 9 0 014.9 1.3 9.1 9.1 0 013.3 3.5 10.7 10.7 0 011.2 5 10.6 10.6 0 01-1.2 5.2 9 9 0 01-3.3 3.5 9.2 9.2 0 01-4.9 1.2 8.3 8.3 0 01-3.9-.8 6.7 6.7 0 01-2.6-2.5v11.2zm10-11.4a5.6 5.6 0 004.2-1.7 6.5 6.5 0 001.7-4.6 7 7 0 00-.8-3.3 5.6 5.6 0 00-5.1-3.1 5.5 5.5 0 00-4.3 1.8 7.3 7.3 0 000 9.2 5.5 5.5 0 004.3 1.8zM397.1 102a8.7 8.7 0 01-4-.9A5.6 5.6 0 01391 99a5.7 5.7 0 01-.8-2.9 5.1 5.1 0 012.1-4.3 10 10 0 016.1-1.6h5v-.3a4.3 4.3 0 00-1.3-3.3 4.4 4.4 0 00-3-1.1 5.2 5.2 0 00-3 .8 3.5 3.5 0 00-1.4 2.4h-4a6.4 6.4 0 011.3-3.5A7.8 7.8 0 01395 83a10.3 10.3 0 014-.8 8.5 8.5 0 016.1 2 7.4 7.4 0 012.2 5.7v11.6h-3.5l-.3-3.2a7 7 0 01-2.4 2.6 6.8 6.8 0 01-4 1zm.8-3.3a4.8 4.8 0 002.8-.8 5.2 5.2 0 001.7-2 8.2 8.2 0 00.8-3h-4.5a5.3 5.3 0 00-3.4 1 2.6 2.6 0 00-1 2 2.4 2.4 0 001 2 4.2 4.2 0 002.6.8z"></path><path fill="#b8abf1" d="M27.2 12.9a24.4 24.4 0 00-10.6 2.4 5 5 0 00-1.9 6.8 36.5 36.5 0 0022.4 17.3 33.3 33.3 0 008.2 1V20.7a25 25 0 00-18-7.8zM74 15.3a24.4 24.4 0 00-10.7-2.4 25 25 0 00-18 7.8v19.7a33.1 33.1 0 008.2-1 36.5 36.5 0 0022.3-17.3 5 5 0 00-1.9-6.8z"></path><path d="M55.6 19.4v.4c0 8.1-4 15.4-10.3 20.6a26.6 26.6 0 01-10.4-20.6v-.4-.4A26 26 0 0142 1.4a4.5 4.5 0 016.6 0 25.9 25.9 0 017 17.6z"></path><path fill="#60cf86" d="M28 78.4A43 43 0 0145.2 52a43 43 0 00-42.4-4.2 5 5 0 00-2.3 6.9 50.7 50.7 0 0027.3 23.8zM45.3 51.9a43 43 0 0117.3 26.5A50.7 50.7 0 0090 54.6a5 5 0 00-2.4-6.9A42.9 42.9 0 0045.3 52z"></path><path d="M45.3 51.9a43 43 0 00-17.4 26.5 50.7 50.7 0 0034.7 0A43 43 0 0045.3 52z"></path></svg> 