<svg width="1748" height="253" viewBox="0 0 1748 253" fill="none" xmlns="http://www.w3.org/2000/svg">
<g clip-path="url(#clip0_11_4)">
<path d="M507.252 128.839V127.367C506.025 107.732 498.416 94.4783 480.254 94.4783C463.319 94.4783 453.992 107.486 451.783 128.839H507.252ZM539.405 170.073C535.232 195.108 514.37 210.08 480.745 210.08C439.511 210.08 418.158 182.591 418.158 141.602C418.158 101.841 440.984 72.8797 480.499 72.8797C523.451 72.8797 540.877 102.332 540.877 138.903V149.456H451.537C453.01 174.246 462.582 187.254 481.972 187.254C499.644 187.254 504.798 177.927 507.007 170.073H539.405ZM565.178 206.889V13.4834H598.312V206.889H565.178ZM630.977 206.889V13.4834H664.111V206.889H630.977ZM696.53 51.0356V19.8648H730.155V51.0356H696.53ZM696.775 206.889V76.0704H729.91V206.889H696.775ZM795.451 147.738C795.451 170.073 805.76 187.009 826.131 187.009C845.276 187.009 855.829 171.055 855.829 140.866C855.829 113.131 847.485 96.6873 825.886 96.6873C807.723 96.6873 795.451 111.904 795.451 133.748V147.738ZM763.053 253.032V76.0704H794.961V97.6693H795.451C802.078 85.1513 816.068 73.1251 836.685 73.1251C866.138 73.1251 889.209 91.7783 889.209 140.621C889.209 185.536 866.383 210.08 833.985 210.08C815.087 210.08 801.833 200.262 796.679 189.708H796.188V253.032H763.053ZM1011.11 111.168H981.168C980.432 101.841 973.069 94.9693 959.815 94.9693C946.807 94.9693 939.198 101.841 939.198 111.168C939.198 119.758 944.107 124.176 955.888 125.894L977.241 128.839C1002.52 132.276 1014.79 143.811 1014.79 167.128C1014.79 195.354 991.968 210.325 960.061 210.325C925.699 210.325 906.555 195.599 904.837 169.337H935.517C936.498 178.664 942.144 188.236 960.306 188.236C974.787 188.236 984.114 181.854 984.114 171.055C984.114 162.219 980.677 157.31 966.687 155.592L946.071 152.893C922.018 149.702 908.518 138.166 908.518 114.849C908.518 92.0243 925.945 72.8797 960.306 72.8797C992.949 72.8797 1009.15 88.0973 1011.11 111.168ZM1038.46 51.0356V19.8648H1072.08V51.0356H1038.46ZM1038.7 206.889V76.0704H1071.84V206.889H1038.7ZM1201.19 111.168H1171.25C1170.51 101.841 1163.15 94.9693 1149.9 94.9693C1136.89 94.9693 1129.28 101.841 1129.28 111.168C1129.28 119.758 1134.19 124.176 1145.97 125.894L1167.32 128.839C1192.6 132.276 1204.87 143.811 1204.87 167.128C1204.87 195.354 1182.05 210.325 1150.14 210.325C1115.78 210.325 1096.64 195.599 1094.92 169.337H1125.6C1126.58 178.664 1132.22 188.236 1150.39 188.236C1164.87 188.236 1174.19 181.854 1174.19 171.055C1174.19 162.219 1170.76 157.31 1156.77 155.592L1136.15 152.893C1112.1 149.702 1098.6 138.166 1098.6 114.849C1098.6 92.0243 1116.03 72.8797 1150.39 72.8797C1183.03 72.8797 1199.23 88.0973 1201.19 111.168ZM1283.8 206.889V13.4834H1316.93V206.889H1283.8ZM1391.32 186.518C1405.8 186.518 1421.02 175.718 1421.02 150.193V146.511C1397.95 147.738 1385.68 149.702 1378.8 154.611C1374.14 157.801 1372.18 162.71 1372.18 168.846C1372.18 179.645 1379.29 186.518 1391.32 186.518ZM1376.84 113.868H1345.18C1346.16 88.8333 1366.04 73.1251 1399.17 73.1251C1437.95 73.1251 1452.93 89.0783 1452.93 123.931V172.037C1452.93 180.382 1455.38 183.572 1463.97 183.572V207.38H1454.64C1435.25 207.38 1426.91 202.471 1423.47 187.499H1422.74C1415.13 200.999 1401.38 208.607 1382.48 208.607C1355.73 208.607 1339.29 194.372 1339.29 170.319C1339.29 155.347 1345.67 144.302 1358.92 137.43C1372.67 130.312 1392.55 128.594 1420.77 127.367V120.74C1420.77 103.068 1413.9 94.9693 1398.93 94.9693C1383.71 94.9693 1377.33 103.559 1376.84 113.868ZM1485.38 206.889V13.4834H1518.52V96.4423H1519.01C1525.63 83.6793 1539.62 73.1251 1559.01 73.1251C1588.47 73.1251 1611.54 91.7783 1611.54 140.621C1611.54 186.272 1588.96 210.08 1556.81 210.08C1536.93 210.08 1524.16 200.262 1517.29 187.99H1516.8V206.889H1485.38ZM1548.46 187.009C1567.6 187.009 1578.16 171.055 1578.16 140.866C1578.16 113.131 1569.81 96.6873 1548.22 96.6873C1529.81 96.6873 1517.78 111.904 1517.78 133.748V147.738C1517.78 170.073 1528.09 187.009 1548.46 187.009ZM1733.44 111.168H1703.5C1702.76 101.841 1695.4 94.9693 1682.14 94.9693C1669.14 94.9693 1661.53 101.841 1661.53 111.168C1661.53 119.758 1666.44 124.176 1678.22 125.894L1699.57 128.839C1724.85 132.276 1737.12 143.811 1737.12 167.128C1737.12 195.354 1714.3 210.325 1682.39 210.325C1648.03 210.325 1628.88 195.599 1627.17 169.337H1657.85C1658.83 178.664 1664.47 188.236 1682.64 188.236C1697.12 188.236 1706.44 181.854 1706.44 171.055C1706.44 162.219 1703.01 157.31 1689.02 155.592L1668.4 152.893C1644.35 149.702 1630.85 138.166 1630.85 114.849C1630.85 92.0243 1648.27 72.8797 1682.64 72.8797C1715.28 72.8797 1731.48 88.0973 1733.44 111.168Z" fill="black"/>
<mask id="mask0_11_4" style="mask-type:luminance" maskUnits="userSpaceOnUse" x="-1" y="-1" width="356" height="217">
<path d="M354.5 -0.373047H-0.5V215.93H354.5V-0.373047Z" fill="white"/>
</mask>
<g mask="url(#mask0_11_4)">
<path d="M73.5577 -0.295898L147.468 215.93H-0.5L73.5577 -0.295898Z" fill="black"/>
<path d="M280.589 215.93L354.5 -0.295898H206.532L280.589 215.93Z" fill="black"/>
<path d="M173.662 -0.295948L254.796 215.902H174.518L97.6406 -0.373047L173.662 -0.295948Z" fill="black"/>
</g>
</g>
<defs>
<clipPath id="clip0_11_4">
<rect width="1748" height="253" fill="white"/>
</clipPath>
</defs>
</svg>
