<?xml version="1.0" encoding="UTF-8"?>
<svg id="Layer_1" xmlns="http://www.w3.org/2000/svg" version="1.1" viewBox="0 0 780 200">
  <!-- Generator: Adobe Illustrator 29.8.2, SVG Export Plug-In . SVG Version: 2.1.1 Build 3)  -->
  <defs>
    <style>
      .st0 {
        fill: #3d7bb1;
      }
    </style>
  </defs>
  <path class="st0" d="M490.8,34.1c-3.4-3.3-7.4-4.9-12-4.9s-9,1.6-12.2,4.9c-3.3,3.2-5.1,7.2-5.1,12.2s1.8,8.8,5.1,12.1c3.2,3.2,7.2,4.9,12.2,4.9s8.6-1.8,12-4.9c3.3-3.3,5.1-7.4,5.1-12.2s-1.8-8.8-5.1-12.2"/>
  <path class="st0" d="M731.8,161.8c-1.9-.4-3.5-.7-4.6-1.2-3.3-.7-5.8-2.3-7.2-4.6-1.6-2.3-2.3-5.8-2.3-10.4v-49.5c0-10-1.6-17.1-4.9-21.1-3.4-3.9-9-5.8-17.1-5.8s-9.7.9-14.6,2.5c-4.9,1.8-12,5.3-21,10.8l-5.6,3.5v-13c0-1.4-.2-2.3-.5-2.6-.3-.3-.9-.5-1.6-.5s-2,.5-4.4,1.8c-9.2,4.6-18.2,7.8-27.2,9.5-2.3.5-5.3,1.1-8.6,1.4-4.8.6-7.2,1.6-7.2,3.3.2.9.3,1.4,1,1.8.7.3,2.5.5,5.1.5,5.3,0,9.2,1.2,11.5,3.5,2.1,2.5,3.3,6.5,3.3,12.2v41.9c0,4.6-.9,8.1-2.5,10.4-1.5,2.4-4,3.8-7.5,4.5,2.4-2.9,3.5-6.1,3.5-9.6s-.2-1.8-.5-2.3c-.5-.5-1-.9-2-.9s-2.5,1.8-4.4,5.1c-2.1,3.3-4.4,5.1-7.2,5.1s-4.8-1.1-6.2-3.2c-1.2-2.1-1.8-5.5-1.8-10.2v-41.9c0-6.5-.5-11.3-1.6-14.1-.9-3-2.6-5.6-5.1-8.1-3.9-3.5-9.2-6.3-16-8.7-6.9-2.1-14.3-3.2-22.2-3.2-12.3,0-22.5,2.6-30.8,7.8-8.3,5.1-12.3,11.3-12.3,18.3s1.4,7.4,4.1,10c2.8,2.5,6.3,3.9,10.8,3.9s9.3-1.2,12.3-3.7c3.2-2.4,4.6-5.8,4.6-9.8s-.5-4.8-2-7.4c-1.2-2.7-1.9-4.2-1.9-4.9,0-2.5,1.4-4.6,4-6.3,2.5-1.8,5.7-2.7,9.3-2.7,5.8,0,10.2,1.8,13.2,5.5,2.8,3.7,4.4,9.2,4.4,16.6v12.7c-22.4,2.3-38.6,6.3-49,12.3-10.2,6-15.3,14.1-15.3,24.5s2.1,12.4,6.4,16.9c-.3,0-.6-.1-1-.1-2.1-.4-3.7-.5-4.9-.9-3.7-.9-6.5-2.7-8.1-4.9-1.6-2.4-2.5-6-2.5-10.6h0v-73.6c0-.9-.2-1.6-.5-1.8-.4-.3-.7-.6-1.4-.6s-1.9.6-4.4,1.8c-8.6,4.2-17,7.2-25.1,9.2-.7-2.9-2.3-5.4-4.6-7.4-3.3-2.8-7.9-4.2-13.2-4.2s-10.4,1.2-15.2,3.9c-4.9,2.6-10.2,6.9-16,12.9v-12.9c0-1.4-.2-2.1-.5-2.7-.2-.3-.7-.5-1.6-.5s-1.9.5-4.2,1.8c-9.2,4.6-18.3,7.8-27.3,9.7-2.3.3-5.1.9-8.6,1.2-4.6.5-6.9,1.6-6.9,3.3s.4,1.4,1.1,1.8c.7.3,2.3.5,4.9.5,5.3,0,9,1.2,11.3,3.7,2.3,2.3,3.3,6.3,3.3,12v42c0,4.6-.7,8.1-2.3,10.6-1.6,2.3-4.4,3.9-8.1,4.8-1.1.3-2.8.7-4.9,1.1h-1.2c-2.1-.4-3.7-.5-4.9-.9-4-.9-6.9-2.7-8.5-4.9-1.8-2.4-2.6-6-2.6-10.6V14.2c-.2-1.4-.2-2.3-.5-2.6s-.9-.5-1.6-.5-1.9.5-4.4,1.8c-9.2,4.6-18.2,7.8-27.3,9.7-2.1.4-5,.9-8.3,1.2-4.8.7-7.2,1.8-7.2,3.5s.4,1.6.9,1.8c.7.4,2.3.5,5.1.7,5.5,0,9.2,1,11.5,3.4,2.3,2.5,3.3,6.3,3.3,12v39c-3.5-4.7-7.8-8.4-12.9-10.9s-10.8-3.7-17.1-3.7c-13.7,0-25.2,4.9-34.7,14.6-9.4,9.9-14.1,22-14.1,36.3s2.5,19.7,7.4,27.7c-1,.6-2.3,2.2-3.9,4.9-1.9,3.3-4.4,5.1-7.2,5.1s-4.8-1.1-6-3.2c-1.4-2.1-1.9-5.5-1.9-10.2v-41.9c0-6.5-.5-11.3-1.6-14.1-.9-3-2.6-5.6-5.1-8.1-3.9-3.5-9.1-6.3-16-8.7-6.9-2.1-14.3-3.2-22.2-3.2-12.3,0-22.6,2.6-30.8,7.8-8.1,5.1-12.3,11.3-12.3,18.3s1.4,7.4,4.2,10c2.6,2.5,6.2,3.9,10.6,3.9s9.3-1.2,12.5-3.7c3-2.4,4.4-5.8,4.4-9.8s-.5-4.8-1.8-7.4c-1.4-2.7-1.9-4.2-1.9-4.9,0-2.5,1.2-4.6,3.9-6.3,2.5-1.8,5.6-2.7,9.3-2.7,5.8,0,10.2,1.8,13.2,5.5,2.8,3.7,4.4,9.2,4.4,16.6v12.7c-22.4,2.3-38.6,6.3-48.8,12.3-10.4,6-15.5,14.1-15.5,24.5s1.9,11.9,5.9,16.3c-1.3-.3-2.4-.6-3.2-1-3.4-.7-5.6-2.1-7.1-4.6-1.6-2.3-2.3-5.8-2.3-10.4v-49.5c0-10-1.6-17.1-4.9-21.1-3.3-3.9-9-5.8-17.1-5.8s-9.7.9-14.6,2.5c-4.9,1.8-12,5.3-21,10.8l-5.8,3.5V14.2c-.2-1.4-.3-2.3-.5-2.6-.3-.4-.9-.5-1.8-.5s-1.9.5-4.2,1.8c-9.3,4.6-18.3,7.8-27.3,9.7-2.1.4-4.9.9-8.3,1.2-4.9.7-7.4,1.8-7.4,3.5s.4,1.6,1,1.9c.7.2,2.5.5,5.3.5,5.3,0,9.2,1,11.5,3.4,2.1,2.5,3.3,6.3,3.3,12v100.6c0,4.6-.9,8.1-2.5,10.4-1.8,2.4-4.4,3.9-8.1,4.6-1.4.5-3.2.9-5.1,1.2-3,.5-4.6,1.6-4.6,3s.4,1.6,1,2.1c.7.4,2.1.5,4.4.5h52.9c2.1,0,3.7-.2,4.4-.5.7-.5,1.1-1.1,1.1-2.1s-1.4-2.3-4.1-3c-1.6-.4-2.7-.7-3.5-1.1-2.8-1.2-4.8-3-6-5.3-1.1-2.3-1.6-5.6-1.6-10h0v-53.1l4.2-2.5c4.4-2.8,7.9-4.8,10.8-6,2.8-1,5.6-1.6,8.3-1.6,4.6,0,7.6,1.2,9.3,3.5,1.8,2.3,2.7,7.2,2.7,14.8v44.8c0,4.4-.7,7.8-1.8,10.1-1.2,2.3-3.2,4.1-6,5.3-.7.4-1.9.7-3.5,1.1-2.5.7-3.9,1.8-3.9,3s.3,1.6,1.1,2.1c.7.4,2.1.5,4.4.5h51.1c2.1,0,3.3-.2,4-.5.2-.2.4-.5.6-.7,4.9,3.3,10.8,4.8,17.9,4.8s13.4-1.6,19-4.6c5.8-3.2,10.9-7.9,15.7-14.4h0c1.4,6.3,4.1,10.9,8.1,13.9s9.7,4.6,16.7,4.6,14.1-2.1,19.2-6c4.7-3.5,7.4-7.5,7.9-12,1,1.3,2,2.5,3.1,3.7,9,9.7,20.1,14.4,33.3,14.4s13.7-1.6,19.2-4.7c5.5-3,9.7-7.6,12.7-13.4v8.6c0,2.3.5,3.9,1.4,4.9.9.9,2.5,1.4,4.8,1.4h99.7c2.8,0,4.6-.2,5.3-.5.7-.4.9-1.1.9-2.1s-1.8-2.5-5.3-3c-2.3-.2-4.2-.6-5.8-.9-3.9-.9-6.7-2.5-8.5-4.9-1.8-2.5-2.8-5.8-2.8-10.4v-51.6c3.2-3.4,5.6-5.8,7.6-7.1,2.1-1.4,3.9-2.1,5.8-2.1s4.2,1.8,6.3,5.1c.9,1.9,1.8,3.2,2.5,4.1,1.8,2.1,3.5,3.7,5.3,4.6,1.9.9,4,1.4,6.7,1.4,4.4,0,8.1-1.6,10.9-4.4,1.3-1.4,2.3-2.8,3.1-4.5.2.2.4.4.6.6,2.3,2.3,3.4,6.3,3.4,12v42c0,4.8-.9,8.1-2.5,10.6-1.6,2.3-4.2,4-7.9,4.9-1.2.4-2.8.5-4.8.9-3.3.4-5.1,1.4-5.1,2.8s.4,1.6,1.1,2.1c.7.4,2.3.5,4.4.5h58.1c2.3,0,3.7-.2,4.4-.5.5-.4.8-.8,1-1.4,5,3.7,11.3,5.4,18.6,5.4s13.4-1.6,19.2-4.6c5.8-3.2,10.9-7.9,15.7-14.4,1.4,6.3,4.1,10.9,8.1,13.9,4.1,3,9.7,4.6,16.8,4.6s10.7-1.2,15-3.4c.8.2,2,.3,3.7.3h52.9c2.3,0,3.7-.1,4.4-.7.7-.4,1.1-.9,1.1-1.9s-1.4-2.3-4.1-3c-1.6-.4-2.7-.7-3.5-1.1-2.8-1.2-4.8-3-5.8-5.3s-1.6-5.6-1.6-10.1v-53l4.1-2.5c4.9-3.3,8.6-5.5,11.5-6.5,2.6-.9,5.1-1.4,7.8-1.4,4.4,0,7.4,1.2,9.2,3.5,1.8,2.4,2.6,7.6,2.6,15.1v44.8c0,4.4-.5,7.9-1.8,10.2-1.1,2.3-3,3.9-5.7,4.9-.9.5-2.3.9-3.9,1.4-2.6.7-3.9,1.6-3.9,2.8s.4,1.6,1.1,1.9c.7.5,2.3.7,4.6.7h50.4c2.3,0,3.9-.1,4.6-.7.7-.4,1-.9,1-1.9s-1.4-2.5-4.2-3M203.8,127.1c0,8.8-1.9,15.9-5.8,21.1-3.7,5.3-8.6,7.9-14.8,7.9s-7.1-1.4-9.4-4c-2.5-2.7-3.7-6-3.7-10.2,0-7.4,3-13.6,9.1-18.5,6.2-5.1,14.3-8.1,24.5-9v12.7h0ZM317.5,152.1c-4.6,7.6-11.1,11.4-19.6,11.4s-13.2-3.4-16.7-10.4c-3.7-6.7-5.5-17.5-5.5-32.2s1.9-26.1,6-33.5c3.9-7.6,9.7-11.3,17.3-11.3s15,3.5,19,10.8c4.2,7.1,6.3,18,6.3,32.6h0c0,14.1-2.3,25-6.9,32.6M568.1,127.1c0,8.8-1.9,15.9-5.8,21.1-3.7,5.3-8.6,7.9-14.8,7.9s-7-1.4-9.3-4c-2.5-2.7-3.7-6-3.7-10.2,0-7.4,3-13.6,9.2-18.5,6.2-5.1,14.3-8.1,24.5-9v12.7h-.1Z"/>
  <path class="st0" d="M203.3,149h0ZM750.2,62.6c-.6-1-1.3-1.8-2-2.5-.3-.3-.8-.6-1.5-.9,1.8-.2,3.1-.8,4-1.7.8-.9,1.3-2,1.3-3.3s-.2-2-.8-2.8c-.5-.8-1.2-1.4-2.1-1.8-.9-.3-2.1-.5-3.8-.5h-8.3v18.6h2.5v-8.2h4.2c.4,0,.8.2,1.1.5.4.2.8.7,1.3,1.2.5.6,1,1.4,1.8,2.5l2.5,3.9h3.1l-3.2-5.1h0ZM744.7,57.2h-5.3v-6.2h5.9c1.4,0,2.4.3,3,.9.7.6,1,1.3,1,2.2s-.2,1.2-.5,1.7-.8.9-1.5,1.1-1.5.3-2.6.3"/>
  <path class="st0" d="M744.3,74.7c-8.7,0-15.8-7.1-15.8-15.8s7.1-15.8,15.8-15.8,15.8,7.1,15.8,15.8-7.1,15.8-15.8,15.8M744.3,44.7c-7.8,0-14.2,6.4-14.2,14.2s6.4,14.2,14.2,14.2,14.2-6.4,14.2-14.2-6.4-14.2-14.2-14.2"/>
</svg>