<?xml version="1.0" encoding="utf-8"?>
<!-- Generator: Adobe Illustrator 25.4.5, SVG Export Plug-In . SVG Version: 6.00 Build 0)  -->
<svg version="1.1" id="Layer_1" xmlns="http://www.w3.org/2000/svg" xmlns:xlink="http://www.w3.org/1999/xlink" x="0px" y="0px"
	 viewBox="0 0 200 200" style="enable-background:new 0 0 200 200;" xml:space="preserve">
<style type="text/css">
	.st0{fill:#2898D3;}
	.st1{fill:#FEFFFF;}
</style>
<g>
	<g>
		<path class="st0" d="M26.8,116.8c-2.4,0-4.7,0-7.1,0c-1,0-1.9,0-2.9-0.1c-3-0.3-5.1-1.8-6.2-4.6c-0.4-0.9-0.5-1.8-0.5-2.8
			c-0.1-1-0.1-2-0.1-3c0-4.2,0-8.4,0-12.6c0-1,0-2,0.1-3c0.1-1.2,0.3-2.4,0.8-3.4c1.1-2.1,2.9-3.4,5.2-3.8c0.6-0.1,1.3-0.2,2-0.2
			c0.4,0,0.9,0,1.3,0c5,0,10,0,15,0c0.9,0,1.8,0,2.7,0.1c2.9,0.4,4.9,1.9,6,4.6c0.3,0.8,0.4,1.6,0.5,2.4c0.1,0.7,0.1,1.4,0.1,2.1
			c0,5.1,0,10.2,0,15.3c0,1,0,1.9-0.2,2.9c-0.5,3-2.8,5.3-5.8,5.9c-1,0.2-2,0.2-3,0.2c-0.6,0-1.2,0-1.8,0
			C30.8,116.8,28.8,116.8,26.8,116.8C26.8,116.8,26.8,116.8,26.8,116.8z"/>
		<path class="st0" d="M76.7,100.6c0.1-0.1,0.2-0.2,0.3-0.3c1.2-1.2,2.3-2.4,3.5-3.6c0.1-0.2,0.3-0.2,0.5-0.2c1,0,2.1,0,3.1,0
			c0.1,0,0.2,0,0.3,0c0,0.2-0.2,0.2-0.2,0.3c-1.2,1.2-2.5,2.4-3.7,3.6c-0.1,0.1-0.1,0.1-0.2,0.2c-0.1,0.1-0.1,0.2,0,0.3
			c0.1,0.1,0.1,0.1,0.1,0.2c1.5,2.2,2.9,4.4,4.4,6.6c0.1,0.1,0.2,0.2,0.2,0.3c-0.1,0-0.2,0-0.3,0c-1.1,0-2.1,0-3.2,0
			c-0.3,0-0.4-0.1-0.5-0.3c-0.9-1.5-1.8-3-2.8-4.5c-0.1-0.1-0.1-0.2-0.2-0.3c-0.1,0-0.2,0.1-0.2,0.1c-0.3,0.3-0.6,0.6-0.9,0.8
			c-0.1,0.1-0.2,0.3-0.2,0.5c0,1.1,0,2.2,0,3.3c0,0.1,0,0.2,0,0.2c0,0.2,0,0.2-0.2,0.2c-0.9,0-1.9,0-2.8,0c-0.1,0-0.2-0.1-0.2-0.2
			c0-0.1,0-0.2,0-0.2c0-5.1,0-10.1,0-15.2c0-0.5-0.1-0.4,0.4-0.4c0.8,0,1.6,0,2.4,0c0.4,0,0.4-0.1,0.4,0.4c0,2.2,0,4.5,0,6.7
			C76.6,99.6,76.6,100.1,76.7,100.6C76.7,100.6,76.7,100.6,76.7,100.6z"/>
		<path class="st0" d="M149.5,108c-0.1,0.1-0.2,0-0.2,0c-0.9,0-1.8,0-2.7,0c-0.3,0-0.3,0-0.3-0.3c-0.1-0.3-0.1-0.5-0.1-0.8
			c-0.1,0-0.1,0-0.1,0c-0.7,0.7-1.6,1-2.5,1.2c-0.9,0.1-1.8,0.2-2.7-0.1c-1.5-0.4-2.4-1.5-2.4-3c0-0.9,0.1-1.7,0.7-2.4
			c0.5-0.6,1.2-0.9,2-1.1c0.9-0.2,1.9-0.4,2.8-0.5c0.4,0,0.8-0.1,1.1-0.2c0.2,0,0.4-0.1,0.5-0.2c0.4-0.2,0.6-0.5,0.6-1
			c0-0.9-0.5-1.3-1.3-1.4c-0.5-0.1-1-0.1-1.4,0c-0.8,0.2-1.2,0.6-1.4,1.4c0,0.1,0,0.1,0,0.2c0,0.1-0.1,0.1-0.2,0.1
			c-0.1,0-0.1,0-0.2,0c-0.8,0-1.7,0-2.5,0c-0.4,0-0.4,0-0.3-0.4c0.2-1.2,0.8-2.1,1.9-2.7c0.6-0.3,1.3-0.5,2-0.6
			c1.3-0.2,2.6-0.2,3.9,0.1c0.7,0.1,1.3,0.4,1.8,0.9c0.6,0.5,0.9,1.2,0.9,1.9c0,0.3,0,0.5,0,0.8c0,1.8,0,3.5,0,5.3
			C149.2,106.3,149.2,107.2,149.5,108z M146,102.4c-0.3,0.2-0.6,0.3-0.9,0.4c-0.3,0.1-0.7,0.1-1,0.2c-0.6,0.1-1.1,0.1-1.6,0.4
			c-0.7,0.3-1,0.8-1,1.5c0,0.6,0.3,1.1,1,1.3c0.6,0.2,1.1,0.2,1.7,0.1c0.9-0.2,1.5-0.7,1.7-1.6C146,103.9,146,103.2,146,102.4z"/>
		<path class="st0" d="M96.7,104.5C96.7,104.5,96.8,104.6,96.7,104.5c-0.4,1.3-1,2.3-2,3c-0.8,0.5-1.8,0.8-2.8,0.9
			c-0.9,0.1-1.7,0-2.6-0.2c-1.8-0.5-3-1.7-3.6-3.5c-0.5-1.5-0.5-3-0.1-4.5c0.8-2.5,3-4,5.7-4c1.2,0,2.3,0.4,3.3,1.1
			c0.9,0.7,1.5,1.6,1.8,2.7c0.3,0.9,0.4,1.8,0.4,2.7c0,0.3,0,0.3-0.3,0.3c-2,0-4,0-6,0c-0.6,0-1.2,0-1.8,0c-0.3,0-0.3,0-0.2,0.3
			c0,0.5,0.1,0.9,0.3,1.3c0.3,0.7,0.8,1.1,1.5,1.2c0.6,0.2,1.3,0.2,1.9,0c0.7-0.2,1.2-0.6,1.5-1.2c0-0.1,0.1-0.2,0.2-0.2
			C95,104.5,95.8,104.5,96.7,104.5C96.7,104.5,96.7,104.5,96.7,104.5z M91.2,101c0.8,0,1.5,0,2.3,0c0.3,0,0.3,0,0.2-0.3
			c-0.1-0.3-0.2-0.6-0.3-0.9c-0.3-0.7-0.9-1.2-1.7-1.3c-0.2,0-0.4,0-0.7,0c-1.3,0-2.2,0.9-2.4,2.2c0,0.3,0,0.3,0.3,0.3
			C89.7,101,90.5,101,91.2,101z"/>
		<path class="st0" d="M53.9,92.1c2,0,4,0,6.1,0c0.1,0,0.2,0,0.2,0c0.2,0,0.2,0,0.3,0.3c0,0.8,0,1.6,0,2.4c0,0.3,0,0.3-0.3,0.3
			c-1.3,0-2.7,0-4,0c-0.1,0-0.2,0-0.2,0c-0.2,0-0.2,0-0.3,0.3c0,0.8,0,1.6,0,2.5c0,3.3,0,6.5,0,9.8c0,0.1,0,0.2,0,0.3
			c0,0.2,0,0.3-0.3,0.3c-1,0-2,0-3,0c-0.3,0-0.3,0-0.3-0.3c0-0.1,0-0.3,0-0.4c0-4,0-8,0-12c0-0.4,0-0.4-0.4-0.4c-1.3,0-2.6,0-4,0
			c-0.1,0-0.2,0-0.2,0c-0.1,0-0.2,0-0.2-0.2c0-0.9,0-1.7,0-2.6c0-0.2,0.1-0.2,0.2-0.2c0.6,0,1.2,0,1.7,0
			C50.8,92.1,52.4,92.1,53.9,92.1z"/>
		<path class="st0" d="M124,92.1c2,0,4,0,6.1,0c0.1,0,0.1,0,0.2,0c0.3,0,0.3,0,0.3,0.3c0,0.8,0,1.6,0,2.4c0,0.3,0,0.3-0.3,0.3
			c-1.3,0-2.7,0-4,0c-0.1,0-0.2,0-0.2,0c-0.2,0-0.2,0-0.2,0.2c0,0.1,0,0.2,0,0.3c0,4,0,8.1,0,12.1c0,0.5,0,0.4-0.4,0.4
			c-0.9,0-1.8,0-2.7,0c-0.4,0-0.4,0-0.4-0.4c0-3.7,0-7.4,0-11c0-0.4,0-0.9,0-1.3c0-0.3,0-0.3-0.3-0.3c-1.3,0-2.5,0-3.8,0
			c-0.2,0-0.5,0.1-0.6-0.1c-0.1-0.1,0-0.4,0-0.6c0-0.6,0-1.3,0-1.9c0-0.4,0-0.4,0.3-0.4C119.9,92.1,122,92.1,124,92.1z"/>
		<path class="st0" d="M65.1,96.2c1.1,0,2.1,0.2,3.1,0.7c1.2,0.6,2,1.6,2.5,2.9c0.6,1.8,0.6,3.5-0.1,5.3c-0.7,1.8-2.1,2.8-3.9,3.2
			c-1.1,0.2-2.3,0.2-3.4-0.1c-2.2-0.6-3.5-2.1-3.9-4.3c-0.3-1.2-0.2-2.4,0.1-3.6c0.7-2.3,2.2-3.6,4.5-4c0.1,0,0.3,0,0.4-0.1
			C64.6,96.2,64.8,96.2,65.1,96.2z M67.9,102.3c0-0.6-0.1-1.1-0.2-1.7c-0.3-1.1-1-1.9-2.2-2.1c-1.3-0.2-2.3,0.4-2.9,1.6
			c-0.1,0.2-0.1,0.3-0.2,0.5c-0.2,1-0.3,2-0.1,3c0.1,0.5,0.3,1,0.7,1.5c0.8,1,2.4,1,3.2,0.6c0.7-0.3,1.1-0.8,1.3-1.5
			C67.8,103.6,67.9,102.9,67.9,102.3z"/>
		<path class="st0" d="M101.9,98.1c0.1,0,0.1-0.1,0.2-0.1c0.7-1,1.6-1.5,2.8-1.7c0.8-0.1,1.6-0.1,2.4,0.2c1.1,0.4,1.9,1.1,2.2,2.3
			c0.2,0.6,0.3,1.2,0.3,1.8c0,2.4,0,4.9,0,7.3c0,0.3,0,0.3-0.3,0.3c-0.9,0-1.8,0-2.6,0c-0.3,0-0.3,0-0.3-0.3c0-1,0-1.9,0-2.9
			c0-1.1,0-2.2,0-3.3c0-0.5,0-1-0.2-1.5c-0.3-0.9-0.8-1.3-1.7-1.3c-0.3,0-0.7,0-1,0.1c-0.6,0.2-1.1,0.6-1.3,1.2
			c-0.2,0.6-0.3,1.2-0.3,1.8c0,2,0,3.9,0,5.9c0,0.5,0,0.4-0.4,0.4c-0.8,0-1.7,0-2.5,0c-0.2,0-0.3,0-0.3-0.3c0-0.7,0-1.4,0-2.2
			c0-2.9,0-5.8,0-8.7c0-0.1,0-0.2,0-0.2c0-0.3,0-0.3,0.3-0.3c0.8,0,1.7,0,2.5,0c0.3,0,0.3,0,0.3,0.3c0,0.4,0,0.7,0,1.1
			C101.9,97.9,101.9,98,101.9,98.1z"/>
		<path class="st0" d="M154.7,98c0.1,0,0.1,0,0.1-0.1c0.8-1.2,1.9-1.7,3.3-1.8c0.8,0,1.5,0,2.3,0.3c1,0.4,1.6,1.1,1.8,2.1
			c0.2,0.6,0.3,1.2,0.3,1.9c0,2.4,0,4.8,0,7.3c0,0.3,0,0.3-0.3,0.3c-0.9,0-1.7,0-2.6,0c-0.3,0-0.3,0-0.3-0.3c0-2,0-4.1,0-6.1
			c0-0.5,0-0.9-0.1-1.4c0,0,0-0.1,0-0.1c-0.2-1.1-0.8-1.5-1.9-1.5c-0.3,0-0.5,0-0.8,0.1c-0.7,0.2-1.1,0.5-1.4,1.2
			c-0.2,0.6-0.3,1.2-0.3,1.8c0,2,0,3.9,0,5.9c0,0.5,0,0.4-0.4,0.4c-0.8,0-1.7,0-2.5,0c-0.3,0-0.3,0-0.3-0.3c0-0.3,0-0.7,0-1
			c0-3.3,0-6.6,0-9.9c0-0.1,0-0.2,0-0.2c0-0.2,0-0.3,0.3-0.3c0.8,0,1.7,0,2.5,0c0.3,0,0.3,0,0.3,0.3C154.7,97.2,154.7,97.6,154.7,98
			z"/>
		<path class="st0" d="M173.3,99.9c-0.4,0-0.9,0-1.3,0c-0.1,0-0.2,0-0.2-0.2c-0.1-0.8-0.6-1.2-1.4-1.3c-0.5-0.1-1-0.1-1.6,0
			c-0.2,0-0.5,0.1-0.7,0.3c-0.4,0.4-0.4,1-0.1,1.4c0.2,0.2,0.5,0.3,0.8,0.5c0.6,0.2,1.2,0.3,1.8,0.5c0.7,0.2,1.4,0.3,2,0.5
			c0.4,0.1,0.8,0.3,1.2,0.6c0.8,0.5,1.2,1.3,1.2,2.3c0,1.2-0.4,2.2-1.3,3c-0.6,0.5-1.4,0.8-2.2,1c-1.4,0.3-2.8,0.2-4.1-0.1
			c-1.1-0.3-2-0.8-2.6-1.8c-0.4-0.5-0.5-1.2-0.6-1.8c0-0.2,0-0.2,0.2-0.2c0.9,0,1.7,0,2.6,0c0.2,0,0.2,0.1,0.3,0.2
			c0.1,0.6,0.4,1.1,0.9,1.4c0.9,0.5,1.9,0.5,2.8,0c0.4-0.2,0.7-0.5,0.7-0.9c0.1-0.4-0.1-0.8-0.4-1c-0.2-0.2-0.5-0.3-0.8-0.4
			c-0.9-0.3-1.8-0.5-2.8-0.7c-0.5-0.1-1-0.3-1.5-0.5c-0.4-0.2-0.8-0.4-1.1-0.7c-0.4-0.4-0.7-0.8-0.7-1.3c-0.1-1.1,0-2.1,0.8-2.9
			c0.4-0.4,0.9-0.7,1.5-0.9c1.7-0.5,3.5-0.5,5.2,0c1,0.3,1.7,0.9,2.2,1.8c0.2,0.4,0.3,0.8,0.4,1.3c0,0.2,0,0.3-0.2,0.3
			C174.1,99.9,173.7,99.9,173.3,99.9z"/>
		<path class="st0" d="M183.6,102.3c0-1.1,0-2.2,0-3.3c0-0.1,0-0.2,0-0.2c0-0.2-0.1-0.2-0.2-0.2c-0.5,0-0.9,0-1.4,0
			c-0.3,0-0.3,0-0.3-0.3c0-0.5,0-1.1,0-1.6c0-0.3,0-0.3,0.3-0.3c0.5,0,0.9,0,1.4,0c0.3,0,0.3,0,0.3-0.3c0-1,0-1.9,0-2.9
			c0-0.3,0-0.3,0.3-0.3c0.9,0,1.7,0,2.6,0c0.3,0,0.3,0,0.3,0.3c0,1,0,1.9,0,2.9c0,0.3,0,0.3,0.3,0.3c0.6,0,1.2,0,1.8,0
			c0.3,0,0.3,0,0.3,0.3c0,0.5,0,1.1,0,1.6c0,0.3,0,0.3-0.3,0.3c-0.6,0-1.2,0-1.8,0c-0.3,0-0.3,0-0.3,0.3c0,1.8,0,3.7,0,5.5
			c0,0.2,0,0.4,0.1,0.6c0.1,0.3,0.3,0.5,0.6,0.6c0.3,0.1,0.5,0.1,0.8,0.1c0.2,0,0.4,0,0.7,0c0.3,0,0.3,0,0.3,0.3c0,0.4,0,0.8,0,1.2
			c0,0.2,0,0.5,0,0.7c0,0.2,0,0.2-0.2,0.3c-0.6,0.1-1.2,0.1-1.8,0.1c-0.5,0-1,0-1.5-0.2c-0.7-0.2-1.3-0.5-1.6-1.1
			c-0.2-0.4-0.3-0.8-0.3-1.2C183.6,104.6,183.6,103.5,183.6,102.3C183.6,102.3,183.6,102.3,183.6,102.3z"/>
		<path class="st0" d="M133.1,98.6c0.1-0.1,0.1-0.2,0.1-0.2c0.8-1.3,1.9-2.1,3.5-2.2c0.2,0,0.4,0,0.6,0.1c0.1,0,0.2,0.1,0.2,0.2
			c0,0.9,0,1.7,0,2.6c0,0.2-0.1,0.2-0.2,0.2c-0.4-0.1-0.8-0.1-1.3-0.1c-1.3,0.1-2.2,0.8-2.6,2c-0.1,0.5-0.2,0.9-0.2,1.4
			c0,1.7,0,3.4,0,5.1c0,0.5,0,0.4-0.4,0.4c-0.8,0-1.6,0-2.4,0c-0.4,0-0.4,0-0.4-0.4c0-3.4,0-6.7,0-10.1c0-0.3,0-0.6,0-0.9
			c0-0.2,0.1-0.2,0.2-0.2c0.9,0,1.7,0,2.6,0c0.2,0,0.2,0.1,0.2,0.2c0,0.6,0,1.1,0,1.7C133.1,98.4,133.1,98.5,133.1,98.6z"/>
		<path class="st0" d="M180.2,102.3c0,1.8,0,3.5,0,5.3c0,0.1,0,0.1,0,0.2c0,0.3,0,0.3-0.3,0.3c-0.8,0-1.6,0-2.5,0
			c-0.4,0-0.4,0.1-0.4-0.4c0-2.1,0-4.1,0-6.2c0-1.5,0-3.1,0-4.6c0-0.1,0-0.2,0-0.3c0-0.1,0.1-0.2,0.2-0.2c0.1,0,0.3,0,0.4,0
			c0.8,0,1.5,0,2.3,0c0.3,0,0.3,0,0.3,0.3C180.2,98.6,180.2,100.4,180.2,102.3z"/>
		<path class="st0" d="M178.7,92.1c0.4,0,0.9,0,1.3,0c0.2,0,0.2,0,0.3,0.2c0,0.7,0,1.4,0,2.2c0,0.2,0,0.2-0.2,0.2
			c-0.9,0-1.8,0-2.8,0c-0.2,0-0.2-0.1-0.2-0.2c0-0.7,0-1.5,0-2.2c0-0.2,0.1-0.2,0.2-0.2C177.7,92.1,178.2,92.1,178.7,92.1z"/>
		<path class="st0" d="M189.4,90.1c0.1-0.2,0.2-0.4,0.2-0.5c0-0.1,0.1-0.2,0.2-0.2c0.1,0,0.2,0,0.2,0.2c0,0.3,0,0.5,0,0.8
			c0,0.1,0,0.1-0.1,0.1c-0.1,0-0.1-0.1-0.1-0.1c0-0.1,0-0.3,0-0.4c-0.1,0.1-0.1,0.3-0.2,0.4c0,0.1-0.1,0.1-0.2,0.1
			c-0.1,0-0.1-0.1-0.1-0.1c-0.1-0.1-0.1-0.3-0.2-0.4c0,0.1,0,0.3,0,0.4c0,0.1,0,0.1-0.1,0.1c-0.1,0-0.1,0-0.1-0.1c0-0.3,0-0.5,0-0.8
			c0-0.1,0-0.2,0.1-0.2c0.1,0,0.2,0,0.3,0.1C189.2,89.7,189.3,89.9,189.4,90.1z"/>
		<path class="st0" d="M188.2,89.4c0.1,0,0.2,0,0.3,0c0.1,0,0.1,0,0.1,0.1c0,0.1,0,0.1-0.1,0.1c-0.2,0-0.2,0.1-0.2,0.3
			c0,0.2,0,0.3,0,0.5c0,0.1,0,0.1-0.1,0.1c-0.1,0-0.1-0.1-0.1-0.1c0-0.2,0-0.4,0-0.6c0-0.1,0-0.2-0.2-0.2c-0.1,0-0.1,0-0.1-0.1
			c0-0.1,0.1-0.1,0.2-0.1C188,89.4,188.1,89.4,188.2,89.4C188.2,89.4,188.2,89.4,188.2,89.4z"/>
	</g>
	<path class="st1" d="M26.8,114.6c-8,0-14.6-6.6-14.6-14.6c0-8.2,6.7-14.6,14.6-14.6c8,0,14.6,6.6,14.5,14.6
		C41.4,108.1,34.8,114.6,26.8,114.6z M26.8,113.3c7.3,0,13.3-5.9,13.3-13.3c0-7.4-5.9-13.4-13.3-13.4c-7.4,0-13.4,5.9-13.4,13.3
		C13.5,107.3,19.4,113.3,26.8,113.3z"/>
	<path class="st1" d="M26.8,111.7c-6.5,0-11.7-5.3-11.7-11.7c0-6.5,5.3-11.7,11.7-11.7c6.5,0,11.7,5.3,11.7,11.8
		C38.5,106.5,33.3,111.7,26.8,111.7z M30.9,98.6c-1.2,0-2.4,0-3.6,0c-0.2,0-0.5,0-0.7,0.1c-0.4,0.1-0.7,0.5-0.6,0.9
		c0,0.4,0.3,0.8,0.7,0.9c0.2,0,0.4,0.1,0.6,0.1c0.7,0,1.5,0,2.2,0c0.3,0,0.3,0,0.3,0.2c0,0.1,0,0.2,0,0.2c0,2.2,0,4.4,0,6.6
		c0,0.2,0,0.4,0,0.6c0.1,0.6,0.5,1,1.1,1c0.6,0,1-0.4,1.1-1c0-0.2,0-0.4,0-0.7c0-2.2,0-4.4,0-6.6c0-0.5,0-0.4,0.4-0.4
		c0.7,0,1.4,0,2,0c0.2,0,0.4,0,0.6-0.1c0.5-0.1,0.7-0.4,0.8-0.9c0-0.5-0.3-0.8-0.8-0.9c-0.2,0-0.4-0.1-0.6-0.1
		C33.3,98.6,32.1,98.6,30.9,98.6z M23.8,93.6c-1.2,0-2.5,0-3.7,0c-0.2,0-0.4,0-0.6,0.1c-0.4,0.1-0.6,0.5-0.6,0.9
		c0,0.4,0.2,0.7,0.7,0.9c0.2,0.1,0.3,0.1,0.5,0.1c0.7,0,1.4,0,2.2,0c0.5,0,0.4-0.1,0.4,0.4c0,2.2,0,4.5,0,6.7c0,0.2,0,0.4,0.1,0.6
		c0.2,0.5,0.6,0.8,1.1,0.8c0.5,0,0.9-0.3,1.1-0.8c0.1-0.2,0.1-0.5,0.1-0.7c0-2.3,0-4.5,0-6.8c0-0.3,0-0.3,0.3-0.3c0.8,0,1.5,0,2.3,0
		c0.2,0,0.4,0,0.6-0.1c0.4-0.1,0.7-0.4,0.7-0.9c0-0.4-0.2-0.8-0.7-0.9c-0.2-0.1-0.4-0.1-0.6-0.1C26.2,93.6,25,93.6,23.8,93.6z"/>
</g>
</svg>
