<?xml version="1.0" encoding="UTF-8"?>
<svg id="Layer_3" data-name="Layer 3" xmlns="http://www.w3.org/2000/svg" viewBox="0 0 256 104">
  <defs>
    <style>
      .cls-1, .cls-2 {
        fill: #fff;
      }

      .cls-2, .cls-3 {
        fill-rule: evenodd;
      }

      .cls-4 {
        fill: #3d3d3a;
      }

      .cls-3 {
        fill: #7f53e7;
      }
    </style>
  </defs>
  <g>
    <path class="cls-4" d="M145.86,79.99h-5.86v-12.04c-2.35-.37-4.36-1.16-6.18-2.38-1.82-1.21-3.25-2.78-4.28-4.72-1.03-1.93-1.54-4.15-1.54-6.66v-18.2h6v18.05c0,2.6,1.13,5.08,3.09,6.78l.02.02c3.39,2.95,8.44,2.94,11.82-.02h0c1.95-1.71,3.07-4.17,3.07-6.76v-18.07h6v18.2c0,2.51-.52,4.74-1.57,6.69s-2.49,3.54-4.31,4.75c-1.82,1.22-3.77,1.99-6.12,2.32v12.04h-.14Z"/>
    <path class="cls-4" d="M183,67.99c-3.11,0-5.85-.71-8.24-2.13-2.38-1.42-4.28-3.34-5.67-5.75-1.39-2.42-2.09-5.13-2.09-8.12s.7-5.7,2.09-8.12c1.39-2.42,3.28-4.33,5.67-5.75,2.38-1.42,5.14-2.13,8.24-2.13s5.86.71,8.27,2.13c2.41,1.42,4.3,3.33,5.67,5.73,1.37,2.39,2.06,5.11,2.06,8.15s-.68,5.7-2.06,8.12c-1.38,2.42-3.26,4.34-5.67,5.75-2.41,1.42-5.16,2.13-8.27,2.13h0ZM183,63.26c2.11,0,3.94-.5,5.49-1.5,1.55-1,2.76-2.34,3.64-4.04.88-1.7,1.31-3.61,1.31-5.72s-.44-4.03-1.31-5.73c-.88-1.7-2.09-3.04-3.64-4.04-1.55-1-3.38-1.5-5.49-1.5s-3.89.5-5.46,1.5c-1.58,1-2.8,2.35-3.67,4.04-.88,1.7-1.31,3.61-1.31,5.73s.44,4.03,1.31,5.72c.87,1.7,2.1,3.04,3.67,4.04,1.57,1,3.39,1.5,5.46,1.5Z"/>
    <path class="cls-4" d="M223.94,68c-3.01,0-5.72-.63-8.12-1.9-2.4-1.26-4.31-3.09-5.71-5.49-1.4-2.39-2.11-5.27-2.11-8.63v-27.99h6v18.44s1-3.12,6.31-5.34c1.41-.59,2.96-.77,4.55-.77,2.89,0,5.48.63,7.76,1.9,2.28,1.27,4.08,3.06,5.4,5.37,1.32,2.31,1.99,5.05,1.99,8.21,0,2.49-.4,4.73-1.19,6.73-.8,2-1.9,3.7-3.32,5.13-1.43,1.42-3.11,2.5-5.07,3.23-1.96.73-4.11,1.09-6.47,1.09h0ZM223.94,63.32c1.91,0,3.66-.45,5.22-1.37,1.57-.91,2.82-2.2,3.76-3.85.94-1.66,1.4-3.64,1.4-5.93s-.46-4.15-1.38-5.81c-.92-1.66-2.15-2.96-3.69-3.92-1.55-.95-3.3-1.42-5.25-1.42s-3.66.46-5.22,1.36c-1.57.91-2.81,2.2-3.73,3.88-.92,1.68-1.38,3.67-1.38,5.96s.46,4.21,1.38,5.87c.92,1.66,2.16,2.94,3.73,3.85,1.57.91,3.29,1.37,5.16,1.37h0Z"/>
    <path class="cls-4" d="M252,31c-1.08,0-2.01-.4-2.81-1.19-.79-.79-1.19-1.73-1.19-2.81s.4-2.01,1.19-2.81c.79-.79,1.73-1.19,2.81-1.19s2.01.4,2.81,1.19c.79.79,1.19,1.73,1.19,2.81s-.4,2.01-1.19,2.81c-.79.79-1.73,1.19-2.81,1.19Z"/>
    <rect class="cls-4" x="249" y="36" width="6" height="32"/>
  </g>
  <g>
    <path class="cls-3" d="M81.05,3.51c9.6,2.35,17.09,9.85,19.44,19.44,4.68,19.08,4.68,39.01,0,58.1-2.35,9.6-9.85,17.09-19.44,19.44-19.08,4.68-39.01,4.68-58.1,0-9.6-2.35-17.09-9.85-19.44-19.44C-1.17,61.96-1.17,42.04,3.51,22.95,5.87,13.35,13.36,5.87,22.95,3.51c19.08-4.68,39.01-4.68,58.1,0Z"/>
    <g>
      <circle class="cls-1" cx="63.38" cy="32.28" r="7"/>
      <path class="cls-2" d="M37.02,77.71c1.15.67,2.49.86,3.78.52,1.29-.34,2.37-1.16,3.04-2.31,1.25-2.13,4.6-10.22,7.19-16.64,1.26-3.12,4.47-4.96,7.8-4.48,6.82.99,15.46,2.18,17.93,2.18,2.75,0,4.99-2.24,4.99-4.99s-2.24-4.99-4.99-4.99c-1.93,0-8.3.77-17.93,2.18-3.33.48-6.54-1.36-7.8-4.48-2.59-6.42-5.95-14.51-7.19-16.64-.93-1.58-2.6-2.47-4.31-2.47-.85,0-1.72.22-2.51.68-2.37,1.39-3.18,4.45-1.79,6.82.97,1.66,4.84,6.75,10.9,14.34,2.14,2.68,2.14,6.41,0,9.09-4.29,5.37-9.66,12.22-10.9,14.34-.67,1.15-.86,2.49-.52,3.78.34,1.29,1.16,2.37,2.31,3.04Z"/>
      <circle class="cls-1" cx="63.38" cy="71.72" r="7"/>
      <circle class="cls-1" cx="29.25" cy="52" r="7"/>
    </g>
  </g>
</svg>